{
  "accessors": [
    {
      "bufferView": 2,
      "componentType": 5126,
      "count": 1140,
      "max": [
        2.187678098678589,
        3.19789981842041,
        3.504347085952759
      ],
      "min": [
        -0.5,
        -0.5431694984436035,
        -0.5467468500137329
      ],
      "type": "VEC3"
    },
    {
      "bufferView": 2,
      "byteOffset": 13680,
      "componentType": 5126,
      "count": 1140,
      "max": [
        1.0,
        1.0,
        1.0
      ],
      "min": [
        -1.0,
        -1.0,
        -1.0
      ],
      "type": "VEC3"
    },
    {
      "bufferView": 1,
      "componentType": 5126,
      "count": 1140,
      "max": [
        0.9359245300292969,
        0.9980080127716064
      ],
      "min": [
        0.0018681129440665245,
        0.00199203216470778
      ],
      "type": "VEC2"
    },
    {
      "bufferView": 0,
      "componentType": 5125,
      "count": 3228,
      "type": "SCALAR"
    }
  ],
  "asset": {
    "extras": {
      "author": "Atlas_Callisto (https://sketchfab.com/Atlas_Callisto)",
      "license": "CC-BY-NC-ND-4.0 (http://creativecommons.org/licenses/by-nc-nd/4.0/)",
      "source": "https://sketchfab.com/3d-models/uk-fire-alarm-button-4d8b92481b2f400f855b81623ee4b6c7",
      "title": "UK Fire Alarm Button"
    },
    "generator": "Sketchfab-13.84.0",
    "version": "2.0"
  },
  "bufferViews": [
    {
      "buffer": 0,
      "byteLength": 12912,
      "name": "floatBufferViews",
      "target": 34963
    },
    {
      "buffer": 0,
      "byteLength": 9120,
      "byteOffset": 12912,
      "byteStride": 8,
      "name": "floatBufferViews",
      "target": 34962
    },
    {
      "buffer": 0,
      "byteLength": 27360,
      "byteOffset": 22032,
      "byteStride": 12,
      "name": "floatBufferViews",
      "target": 34962
    }
  ],
  "buffers": [
    {
      "byteLength": 49392,
      "uri": "scene.bin"
    }
  ],
  "images": [
    {
      "uri": "textures/lambert2_baseColor.jpeg"
    }
  ],
  "materials": [
    {
      "doubleSided": true,
      "name": "lambert2",
      "pbrMetallicRoughness": {
        "baseColorTexture": {
          "index": 0
        },
        "metallicFactor": 0.0,
        "roughnessFactor": 0.6
      }
    }
  ],
  "meshes": [
    {
      "name": "pCube1_lambert2_0",
      "primitives": [
        {
          "attributes": {
            "NORMAL": 1,
            "POSITION": 0,
            "TEXCOORD_0": 2
          },
          "indices": 3,
          "material": 0,
          "mode": 4
        }
      ]
    }
  ],
  "nodes": [
    {
      "children": [
        1
      ],
      "matrix": [
        0.03620263934135437,
        0.0,
        0.0,
        0.0,
        0.0,
        8.038600749794427e-18,
        -0.03620263934135437,
        0.0,
        0.0,
        0.03620263934135437,
        8.038600749794427e-18,
        0.0,
        0.0,
        0.0,
        0.0,
        1.0
      ],
      "name": "Sketchfab_model"
    },
    {
      "children": [
        2
      ],
      "matrix": [
        1.0,
        0.0,
        0.0,
        0.0,
        0.0,
        0.0,
        1.0,
        0.0,
        0.0,
        -1.0,
        0.0,
        0.0,
        0.0,
        0.0,
        0.0,
        1.0
      ],
      "name": "428861e2334e47a8acaf3d76d9a9c070.fbx"
    },
    {
      "children": [
        3
      ],
      "name": "RootNode"
    },
    {
      "children": [
        4
      ],
      "matrix": [
        1.0,
        0.0,
        0.0,
        0.0,
        0.0,
        1.0,
        0.0,
        0.0,
        0.0,
        0.0,
        1.0,
        0.0,
        0.0,
        1.901379108428955,
        0.0,
        1.0
      ],
      "name": "pCube1"
    },
    {
      "mesh": 0,
      "name": "pCube1_lambert2_0"
    }
  ],
  "samplers": [
    {
      "magFilter": 9729,
      "minFilter": 9987,
      "wrapS": 10497,
      "wrapT": 10497
    }
  ],
  "scene": 0,
  "scenes": [
    {
      "name": "Sketchfab_Scene",
      "nodes": [
        0
      ]
    }
  ],
  "textures": [
    {
      "sampler": 0,
      "source": 0
    }
  ]
}
