{
  "accessors": [
    {
      "bufferView": 2,
      "componentType": 5126,
      "count": 1335,
      "max": [
        15.352885246276855,
        15.510763168334961,
        47.75429916381836
      ],
      "min": [
        -15.352885246276855,
        -18.49507713317871,
        1.1029762029647827
      ],
      "type": "VEC3"
    },
    {
      "bufferView": 2,
      "byteOffset": 16020,
      "componentType": 5126,
      "count": 1335,
      "max": [
        0.9999609589576721,
        0.9992630481719971,
        0.9999998807907104
      ],
      "min": [
        -0.9999610185623169,
        -0.9992629885673523,
        -1.0
      ],
      "type": "VEC3"
    },
    {
      "bufferView": 1,
      "componentType": 5126,
      "count": 1335,
      "max": [
        0.9970362782478333,
        0.9926356077194214
      ],
      "min": [
        0.002986517734825611,
        0.0029615748208016157
      ],
      "type": "VEC2"
    },
    {
      "bufferView": 0,
      "componentType": 5125,
      "count": 4242,
      "type": "SCALAR"
    },
    {
      "bufferView": 2,
      "byteOffset": 32040,
      "componentType": 5126,
      "count": 132,
      "max": [
        14.64035701751709,
        3.000659227371216,
        34.42791748046875
      ],
      "min": [
        -14.64035701751709,
        -3.0396220684051514,
        8.146907806396484
      ],
      "type": "VEC3"
    },
    {
      "bufferView": 2,
      "byteOffset": 33624,
      "componentType": 5126,
      "count": 132,
      "max": [
        0.9997702240943909,
        0.00013117703201714903,
        0.09693939238786697
      ],
      "min": [
        -0.9997702240943909,
        -0.005665511824190617,
        0.02143688127398491
      ],
      "type": "VEC3"
    },
    {
      "bufferView": 1,
      "byteOffset": 10680,
      "componentType": 5126,
      "count": 132,
      "max": [
        0.23176126182079315,
        0.9693843722343445
      ],
      "min": [
        0.002992945723235607,
        0.9169062972068787
      ],
      "type": "VEC2"
    },
    {
      "bufferView": 0,
      "byteOffset": 16968,
      "componentType": 5125,
      "count": 588,
      "type": "SCALAR"
    },
    {
      "bufferView": 2,
      "byteOffset": 35208,
      "componentType": 5126,
      "count": 370,
      "max": [
        2.667149543762207,
        24.836421966552734,
        44.18254852294922
      ],
      "min": [
        -2.6671500205993652,
        12.727044105529785,
        8.078508377075195
      ],
      "type": "VEC3"
    },
    {
      "bufferView": 2,
      "byteOffset": 39648,
      "componentType": 5126,
      "count": 370,
      "max": [
        0.9999505877494812,
        0.999909520149231,
        1.0
      ],
      "min": [
        -0.9999505877494812,
        -0.9999138116836548,
        -1.0
      ],
      "type": "VEC3"
    },
    {
      "bufferView": 1,
      "byteOffset": 11736,
      "componentType": 5126,
      "count": 370,
      "max": [
        0.9258260726928711,
        0.9415146112442017
      ],
      "min": [
        0.2402420938014984,
        0.31660085916519165
      ],
      "type": "VEC2"
    },
    {
      "bufferView": 0,
      "byteOffset": 19320,
      "componentType": 5125,
      "count": 1296,
      "type": "SCALAR"
    },
    {
      "bufferView": 2,
      "byteOffset": 44088,
      "componentType": 5126,
      "count": 70,
      "max": [
        1.6880433559417725,
        19.461719512939453,
        44.672882080078125
      ],
      "min": [
        -1.6880435943603516,
        13.417058944702148,
        44.0648193359375
      ],
      "type": "VEC3"
    },
    {
      "bufferView": 2,
      "byteOffset": 44928,
      "componentType": 5126,
      "count": 70,
      "max": [
        0.978321373462677,
        0.9999322295188904,
        1.0
      ],
      "min": [
        -0.978321373462677,
        -0.9999322295188904,
        -0.011650082655251026
      ],
      "type": "VEC3"
    },
    {
      "bufferView": 1,
      "byteOffset": 14696,
      "componentType": 5126,
      "count": 70,
      "max": [
        0.9890832901000977,
        0.1920495629310608
      ],
      "min": [
        0.9550220966339111,
        0.07668822258710861
      ],
      "type": "VEC2"
    },
    {
      "bufferView": 0,
      "byteOffset": 24504,
      "componentType": 5125,
      "count": 210,
      "type": "SCALAR"
    }
  ],
  "asset": {
    "extras": {
      "author": "radioape (https://sketchfab.com/radioape)",
      "license": "SKETCHFAB Standard (https://sketchfab.com/licenses)",
      "source": "https://sketchfab.com/3d-models/electric-kettle-ce405c0513334bf694d9e3974ae24b8f",
      "title": "Electric kettle"
    },
    "generator": "Sketchfab-16.60.0",
    "version": "2.0"
  },
  "bufferViews": [
    {
      "buffer": 0,
      "byteLength": 25344,
      "name": "floatBufferViews",
      "target": 34963
    },
    {
      "buffer": 0,
      "byteLength": 15256,
      "byteOffset": 25344,
      "byteStride": 8,
      "name": "floatBufferViews",
      "target": 34962
    },
    {
      "buffer": 0,
      "byteLength": 45768,
      "byteOffset": 40600,
      "byteStride": 12,
      "name": "floatBufferViews",
      "target": 34962
    }
  ],
  "buffers": [
    {
      "byteLength": 86368,
      "uri": "scene.bin"
    }
  ],
  "images": [
    {
      "uri": "textures/ruchka__0_baseColor.png"
    },
    {
      "uri": "textures/ruchka__0_metallicRoughness.png"
    },
    {
      "uri": "textures/Material_baseColor.png"
    },
    {
      "uri": "textures/Material_metallicRoughness.png"
    },
    {
      "uri": "textures/Material.001_baseColor.png"
    },
    {
      "uri": "textures/Material.001_metallicRoughness.png"
    }
  ],
  "materials": [
    {
      "doubleSided": true,
      "name": "ruchka__0",
      "pbrMetallicRoughness": {
        "baseColorTexture": {
          "index": 0
        },
        "metallicRoughnessTexture": {
          "index": 1
        }
      }
    },
    {
      "doubleSided": true,
      "name": "Material",
      "occlusionTexture": {
        "index": 3
      },
      "pbrMetallicRoughness": {
        "baseColorTexture": {
          "index": 2
        },
        "metallicRoughnessTexture": {
          "index": 3
        }
      }
    },
    {
      "alphaMode": "BLEND",
      "doubleSided": true,
      "name": "Material.001",
      "occlusionTexture": {
        "index": 5
      },
      "pbrMetallicRoughness": {
        "baseColorFactor": [
          1.0,
          1.0,
          1.0,
          0.4860967195328595
        ],
        "baseColorTexture": {
          "index": 4
        },
        "metallicFactor": 0.0,
        "metallicRoughnessTexture": {
          "index": 5
        },
        "roughnessFactor": 0.8040408205773457
      }
    }
  ],
  "meshes": [
    {
      "name": "base_Material_0",
      "primitives": [
        {
          "attributes": {
            "NORMAL": 1,
            "POSITION": 0,
            "TEXCOORD_0": 2
          },
          "indices": 3,
          "material": 1,
          "mode": 4
        }
      ]
    },
    {
      "name": "steklo_Material.001_0",
      "primitives": [
        {
          "attributes": {
            "NORMAL": 5,
            "POSITION": 4,
            "TEXCOORD_0": 6
          },
          "indices": 7,
          "material": 2,
          "mode": 4
        }
      ]
    },
    {
      "name": "ruchka__0",
      "primitives": [
        {
          "attributes": {
            "NORMAL": 9,
            "POSITION": 8,
            "TEXCOORD_0": 10
          },
          "indices": 11,
          "material": 0,
          "mode": 4
        }
      ]
    },
    {
      "name": "Circle__0",
      "primitives": [
        {
          "attributes": {
            "NORMAL": 13,
            "POSITION": 12,
            "TEXCOORD_0": 14
          },
          "indices": 15,
          "material": 0,
          "mode": 4
        }
      ]
    }
  ],
  "nodes": [
    {
      "children": [
        1
      ],
      "matrix": [
        1.0,
        0.0,
        0.0,
        0.0,
        0.0,
        -5.053215392444312e-16,
        1.0,
        0.0,
        0.0,
        -1.0,
        -5.053215392444312e-16,
        0.0,
        0.0,
        0.0,
        0.0,
        1.0
      ],
      "name": "Sketchfab_model"
    },
    {
      "children": [
        2
      ],
      "matrix": [
        0.009999999776482582,
        0.0,
        0.0,
        0.0,
        0.0,
        -0.009999999776482582,
        0.0,
        0.0,
        0.0,
        0.0,
        -0.009999999776482582,
        0.0,
        0.0,
        0.0,
        0.0,
        1.0
      ],
      "name": "1a3cfe9b662c457682170b9f5298117a.fbx"
    },
    {
      "children": [
        3,
        5,
        7,
        9
      ],
      "name": "RootNode"
    },
    {
      "children": [
        4
      ],
      "name": "base"
    },
    {
      "mesh": 0,
      "name": "base_Material_0"
    },
    {
      "children": [
        6
      ],
      "name": "steklo"
    },
    {
      "mesh": 1,
      "name": "steklo_Material.001_0"
    },
    {
      "children": [
        8
      ],
      "name": "ruchka"
    },
    {
      "mesh": 2,
      "name": "ruchka__0"
    },
    {
      "children": [
        10
      ],
      "name": "Circle"
    },
    {
      "mesh": 3,
      "name": "Circle__0"
    }
  ],
  "samplers": [
    {
      "magFilter": 9729,
      "minFilter": 9987,
      "wrapS": 10497,
      "wrapT": 10497
    }
  ],
  "scene": 0,
  "scenes": [
    {
      "name": "Sketchfab_Scene",
      "nodes": [
        0
      ]
    }
  ],
  "textures": [
    {
      "sampler": 0,
      "source": 0
    },
    {
      "sampler": 0,
      "source": 1
    },
    {
      "sampler": 0,
      "source": 2
    },
    {
      "sampler": 0,
      "source": 3
    },
    {
      "sampler": 0,
      "source": 4
    },
    {
      "sampler": 0,
      "source": 5
    }
  ]
}
