{
  "accessors": [
    {
      "bufferView": 2,
      "componentType": 5126,
      "count": 6169,
      "max": [
        0.09817100316286087,
        0.17234399914741516,
        0.2762635350227356
      ],
      "min": [
        0.0,
        -0.17234399914741516,
        -0.2341274917125702
      ],
      "type": "VEC3"
    },
    {
      "bufferView": 2,
      "byteOffset": 74028,
      "componentType": 5126,
      "count": 6169,
      "max": [
        1.0,
        1.0,
        1.0
      ],
      "min": [
        -1.0,
        -1.0,
        -1.0
      ],
      "type": "VEC3"
    },
    {
      "bufferView": 1,
      "componentType": 5126,
      "count": 6169,
      "max": [
        0.9967373013496399,
        0.9947958588600159
      ],
      "min": [
        0.001220703125,
        0.001220711157657206
      ],
      "type": "VEC2"
    },
    {
      "bufferView": 0,
      "componentType": 5125,
      "count": 17754,
      "type": "SCALAR"
    },
    {
      "bufferView": 2,
      "byteOffset": 148056,
      "componentType": 5126,
      "count": 812,
      "max": [
        0.29418081045150757,
        0.13370054960250854,
        0.22030138969421387
      ],
      "min": [
        -0.00327605870552361,
        -0.003275929717347026,
        -0.22030138969421387
      ],
      "type": "VEC3"
    },
    {
      "bufferView": 2,
      "byteOffset": 157800,
      "componentType": 5126,
      "count": 812,
      "max": [
        0.9919525384902954,
        0.9974632263183594,
        1.0
      ],
      "min": [
        -0.9919525384902954,
        -0.9932945966720581,
        -1.0
      ],
      "type": "VEC3"
    },
    {
      "bufferView": 1,
      "byteOffset": 49352,
      "componentType": 5126,
      "count": 812,
      "max": [
        0.998779296875,
        0.9940479397773743
      ],
      "min": [
        0.0012207035906612873,
        0.001220703125
      ],
      "type": "VEC2"
    },
    {
      "bufferView": 0,
      "byteOffset": 71016,
      "componentType": 5125,
      "count": 3078,
      "type": "SCALAR"
    },
    {
      "bufferView": 2,
      "byteOffset": 167544,
      "componentType": 5126,
      "count": 2315,
      "max": [
        0.03848036006093025,
        0.07043888419866562,
        0.1420622318983078
      ],
      "min": [
        -0.03702336922287941,
        -0.07043888419866562,
        0.0
      ],
      "type": "VEC3"
    },
    {
      "bufferView": 2,
      "byteOffset": 195324,
      "componentType": 5126,
      "count": 2315,
      "max": [
        1.0,
        1.0,
        1.0
      ],
      "min": [
        -1.0,
        -1.0,
        -1.0
      ],
      "type": "VEC3"
    },
    {
      "bufferView": 1,
      "byteOffset": 55848,
      "componentType": 5126,
      "count": 2315,
      "max": [
        0.9937204718589783,
        0.9936027526855469
      ],
      "min": [
        0.001220703125,
        0.001220711157657206
      ],
      "type": "VEC2"
    },
    {
      "bufferView": 0,
      "byteOffset": 83328,
      "componentType": 5125,
      "count": 5388,
      "type": "SCALAR"
    }
  ],
  "asset": {
    "extras": {
      "author": "VRTESTER (https://sketchfab.com/VRTESTER)",
      "license": "CC-BY-4.0 (http://creativecommons.org/licenses/by/4.0/)",
      "source": "https://sketchfab.com/3d-models/industrial-electrical-box-de13c96dad014bf098df03030f314fee",
      "title": "Industrial Electrical Box"
    },
    "generator": "Sketchfab-16.72.0",
    "version": "2.0"
  },
  "bufferViews": [
    {
      "buffer": 0,
      "byteLength": 104880,
      "name": "floatBufferViews",
      "target": 34963
    },
    {
      "buffer": 0,
      "byteLength": 74368,
      "byteOffset": 104880,
      "byteStride": 8,
      "name": "floatBufferViews",
      "target": 34962
    },
    {
      "buffer": 0,
      "byteLength": 223104,
      "byteOffset": 179248,
      "byteStride": 12,
      "name": "floatBufferViews",
      "target": 34962
    }
  ],
  "buffers": [
    {
      "byteLength": 402352,
      "uri": "scene.bin"
    }
  ],
  "images": [
    {
      "uri": "textures/ElecticalBox_baseColor.png"
    },
    {
      "uri": "textures/ElecticalBox_metallicRoughness.png"
    }
  ],
  "materials": [
    {
      "alphaCutoff": 0.24228645268252244,
      "alphaMode": "MASK",
      "name": "ElecticalBox",
      "pbrMetallicRoughness": {
        "baseColorTexture": {
          "index": 0
        },
        "metallicRoughnessTexture": {
          "index": 1
        },
        "roughnessFactor": 0.236191196011264
      }
    }
  ],
  "meshes": [
    {
      "name": "Electrical Box_ElecticalBox_0",
      "primitives": [
        {
          "attributes": {
            "NORMAL": 1,
            "POSITION": 0,
            "TEXCOORD_0": 2
          },
          "indices": 3,
          "material": 0,
          "mode": 4
        }
      ]
    },
    {
      "name": "Electrical Door_ElecticalBox_0",
      "primitives": [
        {
          "attributes": {
            "NORMAL": 5,
            "POSITION": 4,
            "TEXCOORD_0": 6
          },
          "indices": 7,
          "material": 0,
          "mode": 4
        }
      ]
    },
    {
      "name": "Akumulator_ElecticalBox_0",
      "primitives": [
        {
          "attributes": {
            "NORMAL": 9,
            "POSITION": 8,
            "TEXCOORD_0": 10
          },
          "indices": 11,
          "material": 0,
          "mode": 4
        }
      ]
    }
  ],
  "nodes": [
    {
      "children": [
        1
      ],
      "matrix": [
        1.0,
        0.0,
        0.0,
        0.0,
        0.0,
        2.220446049250313e-16,
        -1.0,
        0.0,
        0.0,
        1.0,
        2.220446049250313e-16,
        0.0,
        0.0,
        0.0,
        0.0,
        1.0
      ],
      "name": "Sketchfab_model"
    },
    {
      "children": [
        2
      ],
      "matrix": [
        1.0,
        0.0,
        0.0,
        0.0,
        0.0,
        0.0,
        1.0,
        0.0,
        0.0,
        -1.0,
        0.0,
        0.0,
        0.0,
        0.0,
        0.0,
        1.0
      ],
      "name": "SkrzynkaElektryczna.fbx"
    },
    {
      "children": [
        3,
        5,
        7
      ],
      "name": "RootNode"
    },
    {
      "children": [
        4
      ],
      "matrix": [
        1.0,
        0.0,
        0.0,
        0.0,
        -0.0,
        -1.6292067939183141e-07,
        -0.9999999999999868,
        0.0,
        0.0,
        0.9999999999999868,
        -1.6292067939183141e-07,
        0.0,
        -0.05105718970298767,
        0.23495960235595703,
        0.0015472173690795898,
        1.0
      ],
      "name": "Electrical Box"
    },
    {
      "mesh": 0,
      "name": "Electrical Box_ElecticalBox_0"
    },
    {
      "children": [
        6
      ],
      "matrix": [
        1.0,
        0.0,
        0.0,
        0.0,
        0.0,
        -1.6292067939183141e-07,
        -0.9999999999999868,
        0.0,
        0.0,
        0.9999999999999868,
        -1.6292067939183141e-07,
        0.0,
        0.04218199849128723,
        0.23495960235595703,
        0.16550135612487793,
        1.0
      ],
      "name": "Electrical Door"
    },
    {
      "mesh": 1,
      "name": "Electrical Door_ElecticalBox_0"
    },
    {
      "children": [
        8
      ],
      "matrix": [
        1.0,
        0.0,
        0.0,
        0.0,
        -0.0,
        -1.6292067939183141e-07,
        -0.9999999999999868,
        0.0,
        0.0,
        0.9999999999999868,
        -1.6292067939183141e-07,
        0.0,
        -0.010571956634521484,
        0.22951412200927734,
        0.059233009815216064,
        1.0
      ],
      "name": "Akumulator"
    },
    {
      "mesh": 2,
      "name": "Akumulator_ElecticalBox_0"
    }
  ],
  "samplers": [
    {
      "magFilter": 9729,
      "minFilter": 9987,
      "wrapS": 10497,
      "wrapT": 10497
    }
  ],
  "scene": 0,
  "scenes": [
    {
      "name": "Sketchfab_Scene",
      "nodes": [
        0
      ]
    }
  ],
  "textures": [
    {
      "sampler": 0,
      "source": 0
    },
    {
      "sampler": 0,
      "source": 1
    }
  ]
}
